<!DOCTYPE svg PUBLIC "-//W3C//DTD SVG 1.1//EN" "http://www.w3.org/Graphics/SVG/1.1/DTD/svg11.dtd">
<svg height="100px" width="100px" version="1.1" id="_x32_" xmlns="http://www.w3.org/2000/svg" xmlns:xlink="http://www.w3.org/1999/xlink" viewBox="0 0 512 512" xml:space="preserve" fill="#FF6C0C">
<g id="SVGRepo_bgCarrier" stroke-width="0"/>
<g id="SVGRepo_tracerCarrier" stroke-linecap="round" stroke-linejoin="round"/>
<g id="SVGRepo_iconCarrier"> <style type="text/css"> .st0{fill:#FF6C0C;} </style> <g> <path class="st0" d="M164.128,155.406c-0.017-11.098-0.017-20.759,1.346-29.9l-7.987,9.166 c-14.001,16.134-49.379,26.563-79.029,23.301c-29.666-3.262-42.346-18.986-28.345-35.128l105.4-110.292 c2.049-2.15,2.626-5.311,1.456-8.054c-1.163-2.727-3.856-4.5-6.825-4.5h-16.978c-4.968,0-9.719,1.982-13.206,5.52L28.527,98.174 c-18.76,19.638-17.89,30.544-17.89,61.089c0,21.812,0,301.06,0,301.06c0,26.196,32.92,47.824,62.578,51.078 c29.65,3.27,70.272-7.168,84.273-23.302l9.317-10.832c-1.673-5.402-2.676-11.04-2.676-16.945V155.406z"/> <path class="st0" d="M493.952,0h-18.375c-5.36,0-10.454,2.324-13.984,6.356l-111.84,128.316c-14,16.134-49.379,26.563-79.02,23.301 c-29.667-3.262-42.346-18.986-28.345-35.128l105.4-110.292c2.041-2.15,2.626-5.311,1.456-8.054c-1.172-2.727-3.856-4.5-6.825-4.5 H325.44c-4.968,0-9.727,1.982-13.206,5.52l-91.432,92.654c-18.76,19.638-17.89,30.544-17.89,61.089c0,21.812,0,301.06,0,301.06 c0,26.196,32.92,47.824,62.569,51.078c29.658,3.27,70.272-7.168,84.272-23.302L487.896,327.64 c8.69-10.103,13.474-22.984,13.474-36.315V7.418C501.37,3.328,498.051,0,493.952,0z"/> </g> </g>
</svg>